<svg width="16" height="16" viewBox="0 0 16 16" fill="none" xmlns="http://www.w3.org/2000/svg">
<g clip-path="url(#clip0_156_900)">
<path d="M8 1.88235C9.47083 1.88235 10.6667 2.72647 10.6667 3.76471V5.64706H5.33333V3.76471C5.33333 2.72647 6.52917 1.88235 8 1.88235ZM2.66667 3.76471V5.64706C1.19583 5.64706 0 6.49118 0 7.52941V14.1176C0 15.1559 1.19583 16 2.66667 16H13.3333C14.8042 16 16 15.1559 16 14.1176V7.52941C16 6.49118 14.8042 5.64706 13.3333 5.64706V3.76471C13.3333 1.68529 10.9458 0 8 0C5.05417 0 2.66667 1.68529 2.66667 3.76471ZM9 9.64706V12C9 12.3912 8.55417 12.7059 8 12.7059C7.44583 12.7059 7 12.3912 7 12V9.64706C7 9.25588 7.44583 8.94118 8 8.94118C8.55417 8.94118 9 9.25588 9 9.64706Z" fill="url(#paint0_linear_156_900)"/>
</g>
<defs>
<linearGradient id="paint0_linear_156_900" x1="8" y1="0" x2="8" y2="16" gradientUnits="userSpaceOnUse">
<stop stop-color="#4C566B"/>
<stop offset="1" stop-color="#344B53"/>
</linearGradient>
<clipPath id="clip0_156_900">
<rect width="16" height="16" fill="white"/>
</clipPath>
</defs>
</svg>
