<svg width="24" height="24" viewBox="0 0 24 24" fill="none" xmlns="http://www.w3.org/2000/svg">
<g clip-path="url(#clip0_156_899)">
<path d="M12 3.60001C13.3238 3.60001 14.4 4.67626 14.4 6.00001V8.40001H9.60005V6.00001C9.60005 4.67626 10.6763 3.60001 12 3.60001ZM7.20005 6.00001V8.40001C5.8763 8.40001 4.80005 9.47626 4.80005 10.8V19.2C4.80005 20.5238 5.8763 21.6 7.20005 21.6H16.8C18.1238 21.6 19.2 20.5238 19.2 19.2V10.8C19.2 9.47626 18.1238 8.40001 16.8 8.40001V6.00001C16.8 3.34876 14.6513 1.20001 12 1.20001C9.3488 1.20001 7.20005 3.34876 7.20005 6.00001ZM12.9 13.5V16.5C12.9 16.9988 12.4988 17.4 12 17.4C11.5013 17.4 11.1 16.9988 11.1 16.5V13.5C11.1 13.0013 11.5013 12.6 12 12.6C12.4988 12.6 12.9 13.0013 12.9 13.5Z" fill="url(#paint0_linear_156_899)"/>
</g>
<defs>
<linearGradient id="paint0_linear_156_899" x1="12" y1="1.20001" x2="12" y2="21.6" gradientUnits="userSpaceOnUse">
<stop stop-color="#4C566B"/>
<stop offset="1" stop-color="#344B53"/>
</linearGradient>
<clipPath id="clip0_156_899">
<rect width="24" height="24" fill="white"/>
</clipPath>
</defs>
</svg>
