<svg width="20" height="16" viewBox="0 0 20 16" fill="none" xmlns="http://www.w3.org/2000/svg">
<path d="M15.2998 0C17.6564 0 19.5664 1.68526 19.5664 3.76465V4.05859C19.5664 4.57918 19.09 5 18.5 5C17.91 5 17.4336 4.57918 17.4336 4.05859V3.76465C17.4336 2.72644 16.4764 1.88281 15.2998 1.88281C14.1233 1.88291 13.167 2.7265 13.167 3.76465V5.64746H13.8662C15.0428 5.64746 15.9999 6.49111 16 7.5293V14.1172C16 15.1554 15.0429 16 13.8662 16H2.13379C0.957122 16 0 15.1554 0 14.1172V7.5293C7.06172e-05 6.49111 0.957166 5.64746 2.13379 5.64746H11.0332V3.76465C11.0332 1.68532 12.9433 9.27467e-05 15.2998 0ZM8 9C7.44583 9 7 9.31488 7 9.70605V12.0586C7 12.4498 7.44583 12.7646 8 12.7646C8.55417 12.7646 9 12.4498 9 12.0586V9.70605C9 9.31488 8.55417 9 8 9Z" fill="url(#paint0_linear_160_935)"/>
<defs>
<linearGradient id="paint0_linear_160_935" x1="9.7832" y1="0" x2="9.7832" y2="16" gradientUnits="userSpaceOnUse">
<stop stop-color="#F4F5F7"/>
<stop offset="1" stop-color="#AAB5B8"/>
</linearGradient>
</defs>
</svg>
