<svg width="24" height="24" viewBox="0 0 24 24" fill="none" xmlns="http://www.w3.org/2000/svg">
<g clip-path="url(#clip0_156_895)">
<path d="M18 3.60001C16.6763 3.60001 15.6 4.67626 15.6 6.00001V8.40001H16.8C18.1238 8.40001 19.2 9.47626 19.2 10.8V19.2C19.2 20.5238 18.1238 21.6 16.8 21.6H7.20005C5.8763 21.6 4.80005 20.5238 4.80005 19.2V10.8C4.80005 9.47626 5.8763 8.40001 7.20005 8.40001H13.2V6.00001C13.2 3.34876 15.3488 1.20001 18 1.20001C20.6513 1.20001 22.8 3.34876 22.8 6.00001V7.20001C22.8 7.86376 22.2638 8.40001 21.6 8.40001C20.9363 8.40001 20.4 7.86376 20.4 7.20001V6.00001C20.4 4.67626 19.3238 3.60001 18 3.60001ZM13.5 15.9C13.9988 15.9 14.4 15.4988 14.4 15C14.4 14.5013 13.9988 14.1 13.5 14.1H10.5C10.0013 14.1 9.60005 14.5013 9.60005 15C9.60005 15.4988 10.0013 15.9 10.5 15.9H13.5Z" fill="url(#paint0_linear_156_895)"/>
</g>
<defs>
<linearGradient id="paint0_linear_156_895" x1="13.8" y1="1.20001" x2="13.8" y2="21.6" gradientUnits="userSpaceOnUse">
<stop stop-color="#4C566B"/>
<stop offset="1" stop-color="#344B53"/>
</linearGradient>
<clipPath id="clip0_156_895">
<rect width="24" height="24" fill="white"/>
</clipPath>
</defs>
</svg>
